<?xml version="1.0" encoding="UTF-8"?>
<svg version="1.1" xmlns="http://www.w3.org/2000/svg" width="500" height="500">
<path d="M0 0 C1.92879105 1.38721848 1.92879105 1.38721848 2.57715607 3.67131805 C2.68224047 5.11245909 2.68224047 5.11245909 2.78944778 6.58271408 C2.87908798 7.68431366 2.96872818 8.78591324 3.06108475 9.92089462 C3.14021103 11.13535767 3.21933731 12.34982071 3.30086136 13.60108566 C3.39898117 14.8761145 3.49710098 16.15114334 3.59819412 17.46480942 C3.86740316 20.97059912 4.11272388 24.4777023 4.35365772 27.98553371 C4.61013755 31.66485256 4.88749727 35.34259845 5.16237259 39.02058029 C5.62197473 45.21044259 6.06732961 51.40119487 6.5030098 57.59278488 C7.05963903 65.50245367 7.63826479 73.41034201 8.22452545 81.31786346 C8.73071541 88.14634157 9.22775311 94.97548148 9.72278881 101.80477619 C9.88087527 103.98225784 10.03995969 106.1596651 10.19909286 108.33707047 C10.49748286 112.43112934 10.78644062 116.52580408 11.07429886 120.62061691 C11.20513367 122.40587532 11.20513367 122.40587532 11.3386116 124.22719955 C11.89515287 132.29139742 12.02295163 140.30503595 11.92879105 148.38721848 C12.58879105 148.38721848 13.24879105 148.38721848 13.92879105 148.38721848 C14.3155098 147.16132004 14.70222855 145.9354216 15.10066605 144.67237473 C17.13200911 138.58429208 19.65278419 132.72089234 22.17879105 126.82471848 C22.66388138 125.68534836 23.14897171 124.54597824 23.64876175 123.37208176 C27.35360657 114.68625842 31.10696623 106.02219467 34.92879105 97.38721848 C31.95879105 96.39721848 31.95879105 96.39721848 28.92879105 95.38721848 C30.3094168 91.98167494 31.42480538 90.92723503 34.74129105 89.44971848 C40.7853269 85.89311976 41.83536202 79.70965515 43.92879105 73.38721848 C44.84556756 71.10793984 45.78194775 68.83641048 46.74129105 66.57471848 C47.16023636 65.57827316 47.57918167 64.58182785 48.0108223 63.55518723 C48.31375198 62.83975754 48.61668167 62.12432785 48.92879105 61.38721848 C42.9778023 59.17039446 37.06726287 57.02414429 30.92879105 55.38721848 C29.93879105 58.02721848 28.94879105 60.66721848 27.92879105 63.38721848 C24.95879105 62.89221848 24.95879105 62.89221848 21.92879105 62.38721848 C22.58879105 59.08721848 23.24879105 55.78721848 23.92879105 52.38721848 C20.62879105 52.05721848 17.32879105 51.72721848 13.92879105 51.38721848 C13.59149817 47.86672411 13.25883156 44.34589395 12.92879105 40.82471848 C12.78570511 39.33875168 12.78570511 39.33875168 12.63972855 37.82276535 C12.15870983 32.65181419 11.81225471 27.58036896 11.92879105 22.38721848 C20.23135842 23.45491908 28.37706782 25.05222527 36.55379105 26.82471848 C37.5064888 27.02992111 38.45918655 27.23512375 39.44075394 27.44654465 C45.23030819 28.71934064 50.93433476 30.17525131 56.62947464 31.82105637 C59.01962417 32.50676314 59.01962417 32.50676314 61.92879105 32.38721848 C63.24879105 28.75721848 64.56879105 25.12721848 65.92879105 21.38721848 C67.90879105 22.04721848 69.88879105 22.70721848 71.92879105 23.38721848 C71.29722109 28.43977811 69.79419732 32.68315049 67.92879105 37.38721848 C68.60297073 37.4722966 69.27715042 37.55737473 69.9717598 37.64503098 C73.75026047 38.59339971 76.89070043 40.33788172 80.24129105 42.26221848 C81.28591507 42.85897385 81.28591507 42.85897385 82.35164261 43.46778488 C94.10417398 50.2939633 104.84422672 57.74969963 114.47566605 67.36768723 C116.91390349 69.81093712 116.91390349 69.81093712 120.92879105 69.38721848 C122.60259412 67.90526901 122.60259412 67.90526901 123.99129105 65.94971848 C126.62824953 62.48739898 126.62824953 62.48739898 129.92879105 61.38721848 C130.91879105 62.70721848 131.90879105 64.02721848 132.92879105 65.38721848 C132.1708223 66.1838591 132.1708223 66.1838591 131.39754105 66.99659348 C130.74785355 67.70299973 130.09816605 68.40940598 129.42879105 69.13721848 C128.77910355 69.83331223 128.12941605 70.52940598 127.46004105 71.24659348 C125.54092462 73.4907866 125.54092462 73.4907866 125.92879105 77.38721848 C127.59578953 79.8746685 127.59578953 79.8746685 129.86629105 82.38721848 C140.95769948 95.52680562 149.33198359 109.02288878 156.92879105 124.38721848 C157.61586136 124.09846848 158.30293167 123.80971848 159.0108223 123.51221848 C159.91187698 123.14096848 160.81293167 122.76971848 161.74129105 122.38721848 C162.63461136 122.01596848 163.52793167 121.64471848 164.4483223 121.26221848 C166.92879105 120.38721848 166.92879105 120.38721848 169.92879105 120.38721848 C170.58879105 122.36721848 171.24879105 124.34721848 171.92879105 126.38721848 C167.96879105 128.03721848 164.00879105 129.68721848 159.92879105 131.38721848 C161.0531217 135.57489923 162.17823126 139.76236808 163.30379105 143.94971848 C163.62090042 145.13114426 163.9380098 146.31257004 164.26472855 147.5297966 C164.72879105 149.25552902 164.72879105 149.25552902 165.20222855 151.01612473 C165.65154739 152.69170456 165.65154739 152.69170456 166.10994339 154.40113449 C166.74135934 156.70371305 167.41089127 158.98202495 168.11629105 161.26221848 C169.03959173 164.81337495 169.34462573 168.16432536 169.55379105 171.82471848 C169.66593948 173.67903488 169.66593948 173.67903488 169.78035355 175.57081223 C169.82933792 176.50022629 169.8783223 177.42964035 169.92879105 178.38721848 C149.96068171 177.42366494 149.96068171 177.42366494 140.92879105 176.38721848 C140.92879105 173.08721848 140.92879105 169.78721848 140.92879105 166.38721848 C135.97879105 167.37721848 135.97879105 167.37721848 130.92879105 168.38721848 C130.59879105 166.40721848 130.26879105 164.42721848 129.92879105 162.38721848 C132.56879105 161.39721848 135.20879105 160.40721848 137.92879105 159.38721848 C135.94879105 153.44721848 133.96879105 147.50721848 131.92879105 141.38721848 C130.21949417 142.10909348 128.5101973 142.83096848 126.74910355 143.57471848 C124.51741086 144.51240448 122.28563576 145.44989436 120.05379105 146.38721848 C118.36189651 147.10264816 118.36189651 147.10264816 116.6358223 147.83253098 C115.02127151 148.50928879 115.02127151 148.50928879 113.37410355 149.19971848 C112.37910843 149.61866379 111.38411331 150.0376091 110.35896683 150.46924973 C107.92879105 151.38721848 107.92879105 151.38721848 105.92879105 151.38721848 C105.68129105 152.10909348 105.43379105 152.83096848 105.17879105 153.57471848 C103.81895431 156.63435114 102.0996135 158.85459227 99.92879105 161.38721848 C98.93879105 161.05721848 97.94879105 160.72721848 96.92879105 160.38721848 C96.59879105 159.39721848 96.26879105 158.40721848 95.92879105 157.38721848 C89.15275823 158.68869175 83.20781755 160.72389112 76.89754105 163.48487473 C75.98041336 163.87920197 75.06328568 164.27352921 74.11836624 164.67980576 C72.19746574 165.50739051 70.27816912 166.3387072 68.36043167 167.17359543 C65.41270995 168.45671847 62.46032317 169.72857175 59.50691605 170.9985466 C57.63684676 171.80584651 55.76704513 172.6137668 53.89754105 173.42237473 C52.56958511 173.99581367 52.56958511 173.99581367 51.21480179 174.58083725 C50.40305496 174.93467987 49.59130814 175.28852249 48.75496292 175.65308762 C48.03820389 175.96460266 47.32144485 176.27611771 46.58296585 176.5970726 C44.93215166 177.27276605 44.93215166 177.27276605 43.92879105 178.38721848 C44.67939238 178.44298774 45.42999371 178.498757 46.20334053 178.55621624 C64.4470143 179.9120025 82.69033613 181.27243482 100.93327522 182.63807201 C109.75534173 183.29836449 118.57752143 183.9570701 127.39998245 184.61207199 C135.08749352 185.18281633 142.7747781 185.75650548 150.4618026 186.33376747 C154.53395246 186.63946377 158.6062021 186.9436602 162.6787262 187.24433327 C166.50875146 187.52714945 170.33846233 187.81389009 174.16796494 188.10369492 C175.5763892 188.20957465 176.98492382 188.31399758 178.39356995 188.41688347 C180.31118714 188.55715918 182.22838753 188.70309912 184.1455574 188.84936142 C185.75777333 188.9696554 185.75777333 188.9696554 187.40255928 189.09237957 C189.92879105 189.38721848 189.92879105 189.38721848 191.92879105 190.38721848 C191.59879105 192.03721848 191.26879105 193.68721848 190.92879105 195.38721848 C186.99815169 196.58664622 182.97979372 196.77899895 178.90535355 197.07081223 C177.70552086 197.16030136 177.70552086 197.16030136 176.48144913 197.25159836 C173.83918584 197.44685345 171.19653832 197.63613436 168.55379105 197.82471848 C167.63633102 197.89135696 166.718871 197.95799545 165.77360916 198.02665329 C153.10199716 198.94498929 140.43093084 199.7100795 127.74129105 200.32471848 C111.47237373 201.11326463 95.23437875 202.24521367 78.99129105 203.44971848 C77.79323837 203.53784805 76.5951857 203.62597763 75.3608284 203.7167778 C71.93662097 203.96962975 68.51273272 204.22637692 65.0889473 204.48487473 C64.06456558 204.56085892 63.04018387 204.63684311 61.98476028 204.71512985 C56.92852316 205.10316073 51.93805973 205.5943061 46.92879105 206.38721848 C47.78656647 206.75972984 47.78656647 206.75972984 48.66167068 207.13976669 C54.59881635 209.71825479 60.53562963 212.29750699 66.47224808 214.87720871 C68.68961026 215.84062219 70.90705791 216.803839 73.12459183 217.76685715 C76.30694436 219.14891145 79.48899162 220.53166642 82.67097855 221.91456223 C83.66684982 222.34687653 84.6627211 222.77919083 85.68877029 223.22460556 C86.60957382 223.62494507 87.53037735 224.02528458 88.47908401 224.43775558 C89.29182785 224.79083282 90.10457169 225.14391006 90.94194412 225.50768661 C92.28541823 226.10241199 93.61467661 226.73016126 94.92879105 227.38721848 C95.05254105 226.60346848 95.17629105 225.81971848 95.30379105 225.01221848 C95.92879105 222.38721848 95.92879105 222.38721848 97.92879105 220.38721848 C98.39929886 221.00210129 98.86980667 221.6169841 99.3545723 222.25049973 C99.97718948 223.05874191 100.59980667 223.8669841 101.24129105 224.69971848 C101.85617386 225.50022629 102.47105667 226.3007341 103.1045723 227.12549973 C105.98321661 230.69452554 108.14619226 232.70138787 112.4561348 234.39503098 C113.3307637 234.74178879 114.20539261 235.0885466 115.10652542 235.44581223 C116.01724808 235.79772629 116.92797073 236.14964035 117.86629105 236.51221848 C119.22657425 237.05169113 119.22657425 237.05169113 120.61433792 237.60206223 C124.36061086 239.07410766 127.99880889 240.48768548 131.92879105 241.38721848 C133.67041952 235.07091254 135.36792754 228.75073893 136.92879105 222.38721848 C134.28879105 221.72721848 131.64879105 221.06721848 128.92879105 220.38721848 C129.25879105 218.40721848 129.58879105 216.42721848 129.92879105 214.38721848 C132.56879105 214.71721848 135.20879105 215.04721848 137.92879105 215.38721848 C138.58879105 212.41721848 139.24879105 209.44721848 139.92879105 206.38721848 C159.26921658 204.00423975 159.26921658 204.00423975 168.92879105 204.38721848 C168.19540264 216.27110412 166.16022347 227.69279208 163.42879105 239.26221848 C163.19577789 240.25599503 163.19577789 240.25599503 162.9580574 241.26984787 C161.56838171 247.16067212 160.18063831 252.7576003 157.92879105 258.38721848 C161.55879105 260.03721848 165.18879105 261.68721848 168.92879105 263.38721848 C168.59879105 265.36721848 168.26879105 267.34721848 167.92879105 269.38721848 C166.32445296 268.90862606 164.72032689 268.4293229 163.11629105 267.94971848 C162.22297073 267.68288254 161.32965042 267.4160466 160.4092598 267.14112473 C158.5740605 266.58333974 156.74845379 265.99377272 154.92879105 265.38721848 C154.44410355 266.40299973 153.95941605 267.41878098 153.46004105 268.46534348 C145.26138726 285.40633383 134.61264835 300.48537487 121.92879105 314.38721848 C122.33871292 314.84612473 122.7486348 315.30503098 123.17097855 315.77784348 C123.70980667 316.39143723 124.2486348 317.00503098 124.80379105 317.63721848 C125.33746292 318.24049973 125.8711348 318.84378098 126.42097855 319.46534348 C127.90853975 321.36140594 128.9320154 323.20011852 129.92879105 325.38721848 C129.26879105 326.04721848 128.60879105 326.70721848 127.92879105 327.38721848 C124.56446828 327.06582992 122.94061701 325.74075985 120.67879105 323.32471848 C120.1580098 322.77686691 119.63722855 322.22901535 119.10066605 321.66456223 C118.52058792 321.03227707 118.52058792 321.03227707 117.92879105 320.38721848 C114.72458729 321.83708443 112.25174509 323.64045811 109.55379105 325.88721848 C96.46077397 336.43753369 82.81756588 344.57677995 67.92879105 352.38721848 C68.36191605 353.41782394 68.36191605 353.41782394 68.80379105 354.46924973 C69.17504105 355.37030441 69.54629105 356.2713591 69.92879105 357.19971848 C70.30004105 358.09303879 70.67129105 358.9863591 71.05379105 359.90674973 C71.92879105 362.38721848 71.92879105 362.38721848 71.92879105 365.38721848 C69.94879105 365.71721848 67.96879105 366.04721848 65.92879105 366.38721848 C64.27879105 362.75721848 62.62879105 359.12721848 60.92879105 355.38721848 C59.76605667 355.78553879 58.6033223 356.1838591 57.40535355 356.59424973 C42.83003196 361.46599264 28.40821355 365.119737 12.92879105 364.38721848 C13.06987628 361.24115387 13.2175524 358.0954298 13.36629105 354.94971848 C13.40560745 354.07122238 13.44492386 353.19272629 13.48543167 352.2876091 C13.75741773 346.61774586 14.2465675 341.02272894 14.92879105 335.38721848 C18.22879105 334.72721848 21.52879105 334.06721848 24.92879105 333.38721848 C24.57816605 332.08784348 24.22754105 330.78846848 23.86629105 329.44971848 C23.2686348 327.23487473 23.2686348 327.23487473 22.92879105 325.38721848 C23.92879105 324.38721848 23.92879105 324.38721848 26.49129105 324.32471848 C27.29566605 324.34534348 28.10004105 324.36596848 28.92879105 324.38721848 C29.58879105 326.36721848 30.24879105 328.34721848 30.92879105 330.38721848 C35.89595265 329.85879703 40.22064999 328.7228854 44.91316605 327.00831223 C46.92879105 326.38721848 46.92879105 326.38721848 49.92879105 326.38721848 C48.56460246 322.63694842 47.16171425 318.90368147 45.72346878 315.18116379 C45.00537162 313.29912187 44.3173354 311.40569791 43.62996292 309.51221848 C40.55312094 301.61852732 37.72016757 297.04724767 29.92879105 293.38721848 C31.06184096 289.98806872 32.05397579 289.33467397 34.92879105 287.38721848 C34.61240677 286.64898849 34.29602249 285.91075851 33.97005081 285.15015793 C33.52459915 284.11077072 33.07914749 283.07138351 32.6201973 282.00049973 C31.8762471 280.26485764 31.8762471 280.26485764 31.11726761 278.49415207 C30.02875754 275.95437783 28.94093389 273.41431105 27.85359573 270.87403488 C25.28953753 264.88526353 22.7207127 258.89882236 20.1280098 252.92237473 C19.50333817 251.47834274 19.50333817 251.47834274 18.86604691 250.0051384 C18.08723759 248.20585346 17.30559419 246.40779202 16.52083206 244.61109543 C16.00347488 243.41359665 16.00347488 243.41359665 15.47566605 242.19190598 C15.17499222 241.50080734 14.87431839 240.80970871 14.56453323 240.09766769 C13.92879105 238.38721848 13.92879105 238.38721848 13.92879105 236.38721848 C13.26879105 236.38721848 12.60879105 236.38721848 11.92879105 236.38721848 C11.94448969 237.66330868 11.94448969 237.66330868 11.96050549 238.96517849 C12.01903192 247.41343375 11.67632163 255.74872709 11.02669144 264.16968918 C10.88279732 266.11618362 10.88279732 266.11618362 10.73599625 268.10200119 C10.47629688 271.61183193 10.21013912 275.12114343 9.94243169 278.63037133 C9.66205907 282.31715913 9.38695864 286.00434116 9.11102676 289.69146347 C8.64815036 295.86531662 8.18098946 302.03883424 7.71126175 308.21216965 C7.1679483 315.35336572 6.63176334 322.495071 6.09923178 329.63707858 C5.58552967 336.5241303 5.06666755 343.41078403 4.54548836 350.29727364 C4.32408064 353.22416967 4.10453419 356.15119659 3.88648033 359.07834435 C3.583037 363.14826852 3.27207511 367.21758342 2.96028519 371.28687668 C2.82541702 373.11396416 2.82541702 373.11396416 2.68782425 374.97796249 C2.60230804 376.07818741 2.51679184 377.17841232 2.42868423 378.31197739 C2.35586259 379.27365987 2.28304094 380.23534235 2.20801258 381.22616673 C1.92879105 383.38721848 1.92879105 383.38721848 0.92879105 384.38721848 C-0.7373801 384.4278568 -2.4050899 384.42993948 -4.07120895 384.38721848 C-5.16192153 379.82325196 -5.38202666 375.25851905 -5.6141777 370.59034348 C-5.71614639 368.70075438 -5.81854798 366.81118861 -5.92130661 364.9216423 C-6.00291031 363.39429962 -6.00291031 363.39429962 -6.08616257 361.83610153 C-7.4158199 337.18523286 -9.16141544 312.56921704 -10.99180603 287.95129013 C-11.19599738 285.20256664 -11.39924728 282.45377485 -11.60230637 279.7049675 C-11.92617189 275.32519912 -12.25260988 270.94563 -12.58125114 266.56621742 C-12.70329953 264.93778773 -12.82478746 263.30931592 -12.94567299 261.68079948 C-13.11327976 259.42759089 -13.28352266 257.17459659 -13.45450974 254.9216423 C-13.54982986 253.65427734 -13.64514999 252.38691238 -13.74335861 251.08114243 C-14.09093291 247.16498657 -14.56151555 243.28522189 -15.07120895 239.38721848 C-22.11807774 255.36699408 -29.12389328 271.36390222 -36.07120895 287.38721848 C-34.09120895 288.04721848 -32.11120895 288.70721848 -30.07120895 289.38721848 C-31.07120895 292.38721848 -31.07120895 292.38721848 -32.8563652 293.28956223 C-33.98365036 293.80196457 -33.98365036 293.80196457 -35.13370895 294.32471848 C-44.33052259 300.06905415 -46.87491897 314.62166918 -50.07120895 324.38721848 C-49.40734177 324.50967941 -48.74347458 324.63214035 -48.0594902 324.75831223 C-44.4223343 325.52377902 -40.84490244 326.47852924 -37.25870895 327.44971848 C-36.56583786 327.63598801 -35.87296677 327.82225754 -35.15909958 328.0141716 C-33.46275254 328.47043046 -31.76692715 328.92862802 -30.07120895 329.38721848 C-29.74120895 327.07721848 -29.41120895 324.76721848 -29.07120895 322.38721848 C-27.09120895 322.38721848 -25.11120895 322.38721848 -23.07120895 322.38721848 C-23.40120895 325.35721848 -23.73120895 328.32721848 -24.07120895 331.38721848 C-21.10120895 332.04721848 -18.13120895 332.70721848 -15.07120895 333.38721848 C-15.07120895 342.29721848 -15.07120895 351.20721848 -15.07120895 360.38721848 C-21.74167735 360.38721848 -27.70825156 360.25580152 -34.19620895 359.19971848 C-35.00445114 359.07097336 -35.81269333 358.94222824 -36.6454277 358.80958176 C-44.7117697 357.43205504 -52.35554054 355.06841325 -60.07120895 352.38721848 C-61.06120895 352.05721848 -62.05120895 351.72721848 -63.07120895 351.38721848 C-64.72120895 355.34721848 -66.37120895 359.30721848 -68.07120895 363.38721848 C-69.72120895 363.05721848 -71.37120895 362.72721848 -73.07120895 362.38721848 C-74.33076126 358.60856155 -73.55208084 357.35310061 -72.13370895 353.69971848 C-71.75343552 352.70585129 -71.37316208 351.7119841 -70.9813652 350.68799973 C-70.68101364 349.92874191 -70.38066208 349.1694841 -70.07120895 348.38721848 C-71.83271286 347.5132341 -71.83271286 347.5132341 -73.6298027 346.62159348 C-85.1906003 340.77590676 -95.72268687 334.16853293 -106.07120895 326.38721848 C-107.0457402 325.6576091 -108.02027145 324.92799973 -109.02433395 324.17628098 C-112.23112017 321.72464119 -115.26202804 319.2911877 -118.07120895 316.38721848 C-122.36359518 318.03813626 -124.95060045 321.12476413 -128.07120895 324.38721848 C-129.39120895 323.72721848 -130.71120895 323.06721848 -132.07120895 322.38721848 C-131.47837274 318.99529485 -130.30377707 317.17644277 -128.00870895 314.63721848 C-127.46085739 314.02362473 -126.91300583 313.41003098 -126.3485527 312.77784348 C-125.92702927 312.31893723 -125.50550583 311.86003098 -125.07120895 311.38721848 C-126.51714472 306.89242387 -129.03817817 303.84404395 -132.13370895 300.38721848 C-139.67545911 291.68910794 -146.08974955 282.51656844 -151.57120895 272.38721848 C-152.07913986 271.4525676 -152.07913986 271.4525676 -152.597332 270.49903488 C-154.34931848 267.15478718 -155.56005746 264.13566275 -156.07120895 260.38721848 C-157.05863083 260.82034348 -158.0460527 261.25346848 -159.06339645 261.69971848 C-160.3575845 262.26240893 -161.65185988 262.82489853 -162.94620895 263.38721848 C-163.59718552 263.67339035 -164.24816208 263.95956223 -164.9188652 264.25440598 C-169.84464645 266.38721848 -169.84464645 266.38721848 -172.07120895 266.38721848 C-172.40120895 264.40721848 -172.73120895 262.42721848 -173.07120895 260.38721848 C-169.44120895 258.73721848 -165.81120895 257.08721848 -162.07120895 255.38721848 C-162.4579277 254.23608566 -162.84464645 253.08495285 -163.24308395 251.89893723 C-173.28843094 221.43343472 -173.28843094 221.43343472 -172.07120895 206.38721848 C-162.31079829 206.06720501 -152.750883 207.27415534 -143.07120895 208.38721848 C-142.74120895 211.68721848 -142.41120895 214.98721848 -142.07120895 218.38721848 C-137.61620895 217.39721848 -137.61620895 217.39721848 -133.07120895 216.38721848 C-132.74120895 218.36721848 -132.41120895 220.34721848 -132.07120895 222.38721848 C-134.71120895 222.71721848 -137.35120895 223.04721848 -140.07120895 223.38721848 C-139.79406052 224.41202316 -139.51691208 225.43682785 -139.2313652 226.49268723 C-138.86539605 227.85334179 -138.4995153 229.21402013 -138.13370895 230.57471848 C-137.95130661 231.24825363 -137.76890427 231.92178879 -137.58097458 232.6157341 C-136.62188898 236.19050771 -135.77577256 239.75474076 -135.07120895 243.38721848 C-131.16692703 242.01427924 -127.2746646 240.60993847 -123.38370895 239.19971848 C-122.28091599 238.81235519 -121.17812302 238.42499191 -120.04191208 238.02589035 C-112.57201334 235.29520229 -108.04622907 232.90299125 -103.75870895 226.07471848 C-103.20183395 225.18784348 -102.64495895 224.30096848 -102.07120895 223.38721848 C-101.08120895 223.71721848 -100.09120895 224.04721848 -99.07120895 224.38721848 C-98.57620895 226.86221848 -98.57620895 226.86221848 -98.07120895 229.38721848 C-96.67551682 228.76846848 -96.67551682 228.76846848 -95.25162888 228.13721848 C-91.69804421 226.56238 -88.14342798 224.98988084 -84.58854294 223.41798019 C-83.06906817 222.74573641 -81.54984996 222.07291234 -80.03092575 221.39942551 C-68.43404661 216.25810388 -56.77680735 211.27585992 -45.07120895 206.38721848 C-91.23495028 202.70752817 -91.23495028 202.70752817 -137.44620895 199.69971848 C-138.46877792 199.64071365 -139.49134689 199.58170883 -140.5449028 199.52091599 C-144.44770164 199.29614399 -148.3505125 199.07158453 -152.25336838 198.84780502 C-160.28099919 198.38378614 -168.30182918 197.85238687 -176.32120895 197.26221848 C-177.3684111 197.18656662 -178.41561325 197.11091476 -179.4945488 197.03297043 C-184.07094989 196.68508218 -188.5562097 196.25082571 -193.07120895 195.38721848 C-193.11392996 193.72109942 -193.11184727 192.05338963 -193.07120895 190.38721848 C-191.32143568 188.6374452 -188.8336062 189.02857185 -186.4461937 188.84936142 C-185.22476669 188.75543106 -184.00333969 188.6615007 -182.74489975 188.56472397 C-181.37898494 188.46437391 -180.0130637 188.36411137 -178.64713669 188.26392746 C-177.21840601 188.15580148 -175.78970585 188.04727156 -174.36103439 187.93836594 C-170.47102342 187.64299553 -166.58060716 187.35330982 -162.69009662 187.06460452 C-158.62857862 186.76225008 -154.56745252 186.45472258 -150.50628281 186.14773178 C-142.81069973 185.56680604 -135.11477308 184.9905674 -127.41871363 184.41599089 C-118.6592136 183.76179158 -109.90010691 183.1024 -101.14103019 182.44256103 C-83.11818953 181.08498155 -65.09486263 179.73395895 -47.07120895 178.38721848 C-51.79694706 176.3368268 -56.52523321 174.2924599 -61.25577927 172.25318527 C-62.8583478 171.56140023 -64.46025847 170.86808881 -66.06144333 170.17310715 C-75.95572127 165.88000723 -85.85317201 161.85069736 -96.07120895 158.38721848 C-96.73120895 160.03721848 -97.39120895 161.68721848 -98.07120895 163.38721848 C-101.37406981 162.28626486 -101.85631796 161.69761657 -103.75870895 158.94971848 C-104.19570114 158.33225754 -104.63269333 157.7147966 -105.0829277 157.07862473 C-106.07120895 155.38721848 -106.07120895 155.38721848 -106.07120895 153.38721848 C-107.20558395 153.03659348 -108.33995895 152.68596848 -109.50870895 152.32471848 C-117.19029921 149.78065482 -124.61280693 146.51272564 -132.07120895 143.38721848 C-132.91200914 145.80151616 -133.74402298 148.2182584 -134.57120895 150.63721848 C-134.80968552 151.31913254 -135.04816208 152.0010466 -135.2938652 152.70362473 C-136.46542183 156.1513485 -137.07120895 158.70424751 -137.07120895 162.38721848 C-134.10120895 163.37721848 -134.10120895 163.37721848 -131.07120895 164.38721848 C-131.07120895 166.03721848 -131.07120895 167.68721848 -131.07120895 169.38721848 C-134.27183583 170.98753191 -136.79392701 169.41895538 -140.07120895 168.38721848 C-140.40120895 171.68721848 -140.73120895 174.98721848 -141.07120895 178.38721848 C-144.77927581 178.72376911 -148.48761486 179.05657274 -152.19620895 179.38721848 C-153.76628708 179.53030441 -153.76628708 179.53030441 -155.36808395 179.67628098 C-160.28299226 180.11177918 -165.1309295 180.52397362 -170.07120895 180.38721848 C-170.42766013 172.40723841 -169.37561774 164.96493144 -167.88370895 157.13721848 C-167.6617485 155.95023361 -167.43978806 154.76324875 -167.21110153 153.54029465 C-165.55895625 145.06470223 -163.3550419 137.36224135 -160.07120895 129.38721848 C-165.02120895 125.92221848 -165.02120895 125.92221848 -170.07120895 122.38721848 C-169.74120895 120.73721848 -169.41120895 119.08721848 -169.07120895 117.38721848 C-165.28301622 115.95311694 -163.00599616 116.8771235 -159.32120895 118.32471848 C-158.3363652 118.70499191 -157.35152145 119.08526535 -156.33683395 119.47706223 C-155.5891777 119.77741379 -154.84152145 120.07776535 -154.07120895 120.38721848 C-153.83144333 119.56995285 -153.5916777 118.75268723 -153.34464645 117.91065598 C-147.22321047 100.97343126 -135.26458616 85.43928422 -123.07120895 72.38721848 C-124.39475687 69.41887316 -125.81335561 67.46088992 -128.19620895 65.26221848 C-129.82902145 63.75440598 -129.82902145 63.75440598 -131.07120895 62.38721848 C-131.07120895 61.72721848 -131.07120895 61.06721848 -131.07120895 60.38721848 C-128.57120895 58.76221848 -128.57120895 58.76221848 -126.07120895 57.38721848 C-125.38284958 58.25346848 -125.38284958 58.25346848 -124.68058395 59.13721848 C-124.0669902 59.87971848 -123.45339645 60.62221848 -122.82120895 61.38721848 C-122.2179277 62.12971848 -121.61464645 62.87221848 -120.99308395 63.63721848 C-119.01148684 65.8360658 -119.01148684 65.8360658 -115.07120895 65.38721848 C-112.48421995 63.3231947 -112.48421995 63.3231947 -109.82120895 60.57471848 C-97.56620093 48.85328256 -83.15742094 40.91302377 -68.07120895 33.38721848 C-68.35995895 32.70014816 -68.64870895 32.01307785 -68.94620895 31.30518723 C-69.31745895 30.40413254 -69.68870895 29.50307785 -70.07120895 28.57471848 C-70.44245895 27.68139816 -70.81370895 26.78807785 -71.19620895 25.86768723 C-72.07120895 23.38721848 -72.07120895 23.38721848 -72.07120895 20.38721848 C-70.09120895 19.72721848 -68.11120895 19.06721848 -66.07120895 18.38721848 C-65.39815878 19.98871734 -64.73298669 21.59352877 -64.07120895 23.19971848 C-63.69995895 24.09303879 -63.32870895 24.9863591 -62.94620895 25.90674973 C-62.07120895 28.38721848 -62.07120895 28.38721848 -62.07120895 31.38721848 C-61.11601364 31.06108566 -60.16081833 30.73495285 -59.1766777 30.39893723 C-55.15092725 29.03259972 -51.1130883 27.70495363 -47.07120895 26.38721848 C-46.14308395 26.0804216 -45.21495895 25.77362473 -44.25870895 25.45753098 C-34.41137265 22.47255716 -23.37003386 21.12051584 -13.07120895 21.38721848 C-12.75119549 31.14762914 -13.95814582 40.70754443 -15.07120895 50.38721848 C-20.02120895 50.88221848 -20.02120895 50.88221848 -25.07120895 51.38721848 C-24.74120895 54.68721848 -24.41120895 57.98721848 -24.07120895 61.38721848 C-27.04120895 61.88221848 -27.04120895 61.88221848 -30.07120895 62.38721848 C-31.06120895 58.42721848 -31.06120895 58.42721848 -32.07120895 54.38721848 C-34.86356182 55.19741936 -37.65509516 56.01026968 -40.44620895 56.82471848 C-41.24027145 57.05481613 -42.03433395 57.28491379 -42.85245895 57.5219841 C-43.61300583 57.74434738 -44.3735527 57.96671066 -45.15714645 58.19581223 C-45.85887985 58.40004807 -46.56061325 58.60428391 -47.2836113 58.81470871 C-49.14631654 59.36098169 -49.14631654 59.36098169 -51.07120895 60.38721848 C-49.94737177 63.45014644 -48.82193219 66.51248325 -47.69620895 69.57471848 C-47.37909958 70.43903488 -47.0619902 71.30335129 -46.73527145 72.1938591 C-46.11974392 73.86732459 -45.49897499 75.53887338 -44.87247849 77.2082634 C-44.25875783 78.8772021 -43.69954964 80.5662756 -43.16495895 82.26221848 C-41.65586225 85.19417779 -39.68504028 86.40894414 -36.94620895 88.19971848 C-36.03613083 88.80428879 -35.1260527 89.4088591 -34.18839645 90.03174973 C-33.48972458 90.47905441 -32.7910527 90.9263591 -32.07120895 91.38721848 C-32.40120895 92.37721848 -32.73120895 93.36721848 -33.07120895 94.38721848 C-35.54620895 94.88221848 -35.54620895 94.88221848 -38.07120895 95.38721848 C-37.72976852 96.14003098 -37.38832809 96.89284348 -37.03654099 97.66846848 C-35.71027545 100.59736039 -34.38735247 103.52773752 -33.06632614 106.45899582 C-32.23700027 108.2968229 -31.40419404 110.13307827 -30.57120895 111.96924973 C-25.14222847 123.99800297 -20.10784421 136.19006333 -15.07120895 148.38721848 C-14.05777551 135.20592404 -13.04898388 122.02428255 -12.04562187 108.84221745 C-11.57924793 102.71683279 -11.11145816 96.59156413 -10.64005661 90.46656418 C-10.09444353 83.37404356 -9.55316297 76.28120488 -9.01652145 69.18799973 C-8.92898857 68.03120838 -8.84145569 66.87441704 -8.75127029 65.68257141 C-7.50986309 49.18689206 -6.43299482 32.69140055 -5.66010666 16.16683578 C-5.60914022 15.10994647 -5.60914022 15.10994647 -5.55714417 14.03170586 C-5.46871992 12.17916455 -5.38555452 10.32637423 -5.30286789 8.47356796 C-5.09269166 5.67342866 -4.82757295 3.09179336 -4.07120895 0.38721848 C-2.07120895 -0.61278152 -2.07120895 -0.61278152 0 0 Z M-78.07120895 71.38721848 C-76.75120895 73.69721848 -75.43120895 76.00721848 -74.07120895 78.38721848 C-76.20975745 80.52576697 -77.20396209 80.8137691 -80.07120895 81.38721848 C-80.35995895 80.76846848 -80.64870895 80.14971848 -80.94620895 79.51221848 C-82.00840937 77.25396083 -82.00840937 77.25396083 -84.07120895 75.38721848 C-89.02120895 79.67721848 -93.97120895 83.96721848 -99.07120895 88.38721848 C-97.44368786 91.64226067 -96.35989815 93.38429016 -93.9735527 95.93409348 C-93.03092575 96.94258347 -93.03092575 96.94258347 -92.06925583 97.97144699 C-91.38927536 98.68615158 -90.70929489 99.40085617 -90.00870895 100.13721848 C-89.3042363 100.88221603 -88.59976364 101.62721359 -87.87394333 102.39478683 C-81.48427827 109.08405556 -74.80302333 115.42939765 -68.00870895 121.70362473 C-65.23805842 124.26570943 -62.55488588 126.89363482 -59.9032402 129.57862473 C-56.99126633 132.51226613 -54.0110228 135.20285486 -50.75870895 137.76221848 C-45.83799223 141.71246051 -41.17362458 145.88096729 -36.52433395 150.14503098 C-31.88124261 155.06849371 -31.88124261 155.06849371 -26.07120895 157.38721848 C-26.07120895 158.04721848 -26.07120895 158.70721848 -26.07120895 159.38721848 C-26.64870895 159.63471848 -27.22620895 159.88221848 -27.82120895 160.13721848 C-30.20387782 161.31907968 -30.20387782 161.31907968 -32.13370895 163.51221848 C-34.07120895 165.38721848 -34.07120895 165.38721848 -37.07120895 165.38721848 C-38.9110527 163.47315598 -38.9110527 163.47315598 -41.00870895 160.76221848 C-41.80148239 159.76061691 -42.59425583 158.75901535 -43.4110527 157.72706223 C-44.05276413 156.91471115 -44.05276413 156.91471115 -44.70743942 156.08594894 C-47.09665786 153.10990493 -49.58388006 150.21881806 -52.07120895 147.32471848 C-52.53261276 146.78444016 -52.99401657 146.24416183 -53.46940231 145.68751144 C-54.99332496 143.91183773 -56.53118268 142.14894109 -58.07120895 140.38721848 C-58.64089401 139.72560715 -59.21057907 139.06399582 -59.79752731 138.38233566 C-67.96198415 129.08417708 -76.86602358 120.48457292 -85.63370895 111.76221848 C-87.32730162 110.07365034 -89.02066299 108.3848502 -90.71378708 106.69581223 C-94.83026325 102.59026724 -98.94959148 98.48760167 -103.07120895 94.38721848 C-106.56034886 96.01875867 -108.58786938 97.78107774 -111.13370895 100.69971848 C-111.80531052 101.45897629 -112.47691208 102.2182341 -113.1688652 103.00049973 C-115.05044583 105.36116865 -116.58157478 107.7652767 -118.07120895 110.38721848 C-114.97793 113.36397307 -114.97793 113.36397307 -111.07120895 114.38721848 C-112.06120895 115.70721848 -113.05120895 117.02721848 -114.07120895 118.38721848 C-114.62808395 118.24284348 -115.18495895 118.09846848 -115.75870895 117.94971848 C-118.18508499 117.3595189 -120.62159164 116.87064212 -123.07120895 116.38721848 C-124.57790615 119.17532068 -126.07540699 121.96825805 -127.57120895 124.76221848 C-128.00046677 125.55628098 -128.42972458 126.35034348 -128.8719902 127.16846848 C-129.48107224 128.30928879 -129.48107224 128.30928879 -130.10245895 129.47315598 C-130.66803513 130.52575607 -130.66803513 130.52575607 -131.24503708 131.59962082 C-132.21105223 133.36158559 -132.21105223 133.36158559 -132.07120895 135.38721848 C-128.29540558 137.1118958 -124.49867352 138.78474718 -120.69620895 140.44971848 C-119.63531052 140.93505051 -118.57441208 141.42038254 -117.4813652 141.9204216 C-108.25726028 145.90998846 -101.4500267 146.08938338 -92.07120895 142.38721848 C-93.06120895 145.02721848 -94.05120895 147.66721848 -95.07120895 150.38721848 C-92.84478661 151.45577802 -90.61526678 152.51697321 -88.38370895 153.57471848 C-87.77720505 153.86669113 -87.17070114 154.15866379 -86.54581833 154.4594841 C-82.43083527 156.40209032 -78.26745303 158.09553814 -74.00870895 159.69971848 C-66.45204253 162.56841749 -59.11570477 165.86117982 -51.75870895 169.19971848 C-50.42096621 169.80356181 -49.08307622 170.40707907 -47.74503708 171.01026535 C-44.51872978 172.46551276 -41.29440877 173.9250989 -38.07120895 175.38721848 C-38.07120895 177.36721848 -38.07120895 179.34721848 -38.07120895 181.38721848 C-39.55620895 180.89221848 -39.55620895 180.89221848 -41.07120895 180.38721848 C-44.19010221 190.22179318 -42.28487391 201.89567026 -39.07120895 211.38721848 C-39.59395905 211.54962524 -40.11670914 211.71203201 -40.65530014 211.8793602 C-46.95155871 213.89937449 -52.96292231 216.39518107 -59.0126152 219.05518723 C-60.02089874 219.49486328 -61.02918228 219.93453934 -62.06801987 220.38753891 C-65.25818201 221.77963808 -68.44596802 223.17708526 -71.63370895 224.57471848 C-73.80868382 225.52494392 -75.98381254 226.47481727 -78.15909958 227.42432785 C-83.46492206 229.74122285 -88.76880908 232.06250208 -94.07120895 234.38721848 C-93.41120895 236.36721848 -92.75120895 238.34721848 -92.07120895 240.38721848 C-98.54641601 240.51672262 -98.54641601 240.51672262 -101.7938652 239.71534348 C-106.20231833 239.27397272 -109.30528617 240.50612922 -113.38370895 242.07471848 C-114.13192917 242.35073898 -114.88014938 242.62675949 -115.65104294 242.91114426 C-120.88793724 244.8662363 -126.01636923 246.99765788 -131.07120895 249.38721848 C-128.47103208 256.57594277 -125.18229662 262.94651446 -121.07120895 269.38721848 C-117.60620895 267.40721848 -117.60620895 267.40721848 -114.07120895 265.38721848 C-112.57120895 266.76221848 -112.57120895 266.76221848 -111.07120895 268.38721848 C-111.07120895 269.04721848 -111.07120895 269.70721848 -111.07120895 270.38721848 C-113.03268769 271.77659925 -115.03287471 273.11325957 -117.07120895 274.38721848 C-113.00987359 279.98085253 -108.69206885 285.24685362 -104.07120895 290.38721848 C-101.15946037 289.06011392 -98.98196451 287.59035354 -96.6454277 285.41065598 C-96.01314255 284.82155441 -95.38085739 284.23245285 -94.72941208 283.62549973 C-94.07908005 283.01061691 -93.42874802 282.3957341 -92.75870895 281.76221848 C-92.11997849 281.17053879 -91.48124802 280.5788591 -90.82316208 279.96924973 C-86.93662936 276.32291812 -83.3910557 272.51357742 -79.92203903 268.47169113 C-75.76561272 263.79057151 -71.20487376 259.48508354 -66.74308395 255.09815598 C-61.96183416 250.36569445 -57.42754386 245.51263307 -53.07120895 240.38721848 C-52.5837822 239.82132004 -52.09635544 239.2554216 -51.59415817 238.67237473 C-50.22598989 237.08261179 -48.86582118 235.48642489 -47.50870895 233.88721848 C-47.03691208 233.33332443 -46.5651152 232.77943039 -46.07902145 232.20875168 C-42.94339426 228.50031104 -40.01278237 224.70631332 -37.28995895 220.68018723 C-36.88777145 220.25350754 -36.48558395 219.82682785 -36.07120895 219.38721848 C-33.07120895 219.38721848 -33.07120895 219.38721848 -31.5360527 220.69971848 C-31.03202927 221.25659348 -30.52800583 221.81346848 -30.00870895 222.38721848 C-28.5357331 224.05170055 -28.5357331 224.05170055 -27.07120895 225.38721848 C-26.41120895 225.38721848 -25.75120895 225.38721848 -25.07120895 225.38721848 C-31.3425194 231.72632687 -37.75628541 238.10540111 -45.00870895 243.32471848 C-55.60379687 251.00265033 -64.7136499 260.91289651 -73.88370895 270.19971848 C-80.10171483 276.49560008 -86.28308332 282.69717199 -93.07120895 288.38721848 C-94.83406054 290.32844712 -96.44963911 292.32340231 -98.07120895 294.38721848 C-96.66398695 299.5939399 -93.62422981 301.68672266 -89.44620895 304.69971848 C-88.83519333 305.15411301 -88.2241777 305.60850754 -87.59464645 306.0766716 C-86.09424885 307.19024795 -84.58370276 308.29012789 -83.07120895 309.38721848 C-80.19700773 306.67117133 -80.19700773 306.67117133 -78.07120895 303.38721848 C-75.10120895 304.37721848 -75.10120895 304.37721848 -72.07120895 305.38721848 C-73.72120895 308.02721848 -75.37120895 310.66721848 -77.07120895 313.38721848 C-74.49110699 314.87227716 -71.90743337 316.35039158 -69.32120895 317.82471848 C-68.59159958 318.24559738 -67.8619902 318.66647629 -67.11027145 319.1001091 C-66.40128708 319.50294113 -65.6923027 319.90577316 -64.96183395 320.32081223 C-64.31246872 320.69262619 -63.66310349 321.06444016 -62.99406052 321.44752121 C-61.03293761 322.40592167 -59.20156461 322.93752278 -57.07120895 323.38721848 C-47.49948153 304.14244228 -47.49948153 304.14244228 -49.07120895 283.38721848 C-48.47308395 283.71721848 -47.87495895 284.04721848 -47.25870895 284.38721848 C-45.01734425 285.59509836 -45.01734425 285.59509836 -42.07120895 285.38721848 C-41.84427856 284.86040985 -41.61734818 284.33360123 -41.38354111 283.7908287 C-38.99973749 278.25753201 -36.61439229 272.72490168 -34.22819138 267.1926384 C-33.34043408 265.13388618 -32.4530567 263.07497009 -31.566082 261.01588058 C-30.28365923 258.0389566 -28.99982518 255.06264453 -27.7157402 252.08643723 C-27.32594482 251.18076508 -26.93614944 250.27509293 -26.53454208 249.34197617 C-23.79081686 242.98777045 -20.95496909 236.67905448 -18.07120895 230.38721848 C-17.10183395 230.87577316 -16.13245895 231.36432785 -15.13370895 231.86768723 C-10.75150332 233.74026453 -6.78044715 233.79848605 -2.07120895 233.69971848 C-1.3029277 233.70294113 -0.53464645 233.70616379 0.25691605 233.7094841 C5.14929069 233.66372209 9.22323279 232.83463897 13.92879105 231.38721848 C15.24879105 231.38721848 16.56879105 231.38721848 17.92879105 231.38721848 C19.93717154 235.94607667 21.93640175 240.50885448 23.92879105 245.07471848 C24.22469131 245.75250351 24.52059158 246.43028854 24.82545853 247.12861252 C28.9881116 256.68412147 32.95409475 266.27598577 36.4795723 276.08912277 C37.89036474 279.95962545 39.14008569 283.26048823 41.92879105 286.38721848 C44.23879105 285.39721848 46.54879105 284.40721848 48.92879105 283.38721848 C48.70062698 284.10007004 48.47246292 284.8129216 48.2373848 285.54737473 C47.94992386 286.50514816 47.66246292 287.4629216 47.36629105 288.44971848 C46.93123245 289.85930832 46.93123245 289.85930832 46.4873848 291.29737473 C45.07322847 299.11973594 48.49636546 305.77540664 51.49129105 312.82471848 C51.91603714 313.84243332 52.34078323 314.86014816 52.77840042 315.90870285 C53.82131827 318.40467479 54.87159046 320.89727062 55.92879105 323.38721848 C60.84320516 321.95069743 64.93117463 319.84562233 69.30379105 317.26221848 C69.94445511 316.88967941 70.58511917 316.51714035 71.2451973 316.13331223 C72.80927582 315.22287846 74.36944638 314.30573656 75.92879105 313.38721848 C75.42734573 312.60991379 74.92590042 311.8326091 74.4092598 311.03174973 C72.92879105 308.38721848 72.92879105 308.38721848 73.24129105 306.07471848 C73.46816605 305.51784348 73.69504105 304.96096848 73.92879105 304.38721848 C76.92879105 304.38721848 76.92879105 304.38721848 79.61629105 306.88721848 C80.37941605 307.71221848 81.14254105 308.53721848 81.92879105 309.38721848 C82.76023636 308.6163591 83.59168167 307.84549973 84.4483223 307.05128098 C85.54587871 306.03815198 86.64354048 305.0251371 87.74129105 304.01221848 C88.28849808 303.50432785 88.83570511 302.99643723 89.39949417 302.47315598 C91.8290112 300.23505544 94.17447773 298.22342736 96.92879105 296.38721848 C95.4666345 293.02165168 93.60475285 290.81019427 91.02083206 288.22047043 C90.21561615 287.4089502 89.41040024 286.59742996 88.58078384 285.76131821 C87.70691528 284.89149811 86.83304672 284.02167801 85.9326973 283.12549973 C85.02938171 282.22027069 84.12606613 281.31504166 83.19537735 280.38238144 C81.27942966 278.4634861 79.35991698 276.54824894 77.43782425 274.63550949 C75.0040033 272.21296976 72.57912271 269.78171356 70.15697193 267.34751225 C67.81629377 264.99774489 65.46788623 262.65576261 63.1201973 260.31299973 C61.83672157 259.02345131 61.83672157 259.02345131 60.52731705 257.70785141 C54.62995244 251.85508797 48.41681365 246.57101007 41.92879105 241.38721848 C39.02510821 238.95890986 36.15063155 236.49680401 33.2764473 234.03370285 C30.889498 231.9998353 28.54235617 230.12959523 25.92879105 228.38721848 C26.50454769 225.03471146 27.52185367 223.44903219 29.99129105 221.13721848 C30.81306839 220.3560466 30.81306839 220.3560466 31.6514473 219.55909348 C32.07297073 219.17237473 32.49449417 218.78565598 32.92879105 218.38721848 C38.35032805 224.19383661 43.69749737 230.00536365 48.67879105 236.19971848 C51.6907703 239.94057527 54.80077007 243.3821465 58.2530098 246.71534348 C60.05479401 248.51292773 61.7085636 250.3938215 63.36629105 252.32471848 C65.78496883 255.13298195 68.28778787 257.78692441 70.92879105 260.38721848 C73.50804165 262.92694033 75.95096494 265.51173161 78.30379105 268.26221848 C83.88816274 274.73703668 90.01964651 280.71957128 96.30379105 286.51221848 C97.21258011 287.35139816 97.21258011 287.35139816 98.13972855 288.20753098 C100.12818865 289.75420957 100.12818865 289.75420957 103.92879105 289.38721848 C105.20769743 287.97714221 106.47778733 286.55346563 107.63191605 285.03956223 C108.92879105 283.38721848 108.92879105 283.38721848 111.61629105 280.76221848 C113.66833055 278.65471844 114.83230153 277.07860184 115.92879105 274.38721848 C112.95879105 272.40721848 112.95879105 272.40721848 109.92879105 270.38721848 C110.58879105 268.07721848 111.24879105 265.76721848 111.92879105 263.38721848 C114.23879105 264.70721848 116.54879105 266.02721848 118.92879105 267.38721848 C120.223723 264.9931001 121.51481276 262.59703967 122.80379105 260.19971848 C123.16859573 259.52618332 123.53340042 258.85264816 123.9092598 258.15870285 C125.80238511 254.63060568 127.53959639 251.15266715 128.92879105 247.38721848 C125.53488231 245.90083509 122.13516682 244.43208266 118.71785355 243.00049973 C116.4620309 242.05467274 114.27733403 241.06862922 112.07722855 239.99268723 C103.88806042 236.29395419 97.25722423 238.09437047 88.92879105 240.38721848 C89.91879105 237.74721848 90.90879105 235.10721848 91.92879105 232.38721848 C90.79038773 231.90365891 89.65198441 231.42009933 88.47908401 230.92188644 C84.18862395 229.09935724 79.89828972 227.27653198 75.60799026 225.45362473 C73.76362266 224.67001738 71.91922253 223.88648656 70.07478714 223.10303879 C68.28284208 222.34187581 66.49095124 221.58058515 64.69911575 220.81916428 C62.93590317 220.07001492 61.17251713 219.32127368 59.40895462 218.57294846 C55.45635024 216.89429424 51.50734044 215.208754 47.57039261 213.49366379 C46.59176758 213.06865082 46.59176758 213.06865082 45.59337234 212.63505173 C43.8785467 211.88885726 42.16555465 211.13845289 40.45271683 210.38770676 C38.07141437 209.26438343 38.07141437 209.26438343 35.92879105 209.38721848 C36.40316605 208.35596848 36.87754105 207.32471848 37.36629105 206.26221848 C41.78987233 195.85010969 39.81273558 185.93677725 36.92879105 175.38721848 C36.59879105 174.72721848 36.26879105 174.06721848 35.92879105 173.38721848 C37.13406448 173.01210129 38.33933792 172.6369841 39.5811348 172.25049973 C46.05289323 170.09240407 52.24581563 167.30669334 58.49129105 164.57471848 C67.57468447 160.62360272 76.66686853 156.8351284 86.02254105 153.57081223 C88.74074525 152.46380164 90.69908883 151.27262844 92.92879105 149.38721848 C91.93879105 147.07721848 90.94879105 144.76721848 89.92879105 142.38721848 C90.63004105 142.61538254 91.33129105 142.8435466 92.05379105 143.07862473 C93.00254105 143.36608566 93.95129105 143.6535466 94.92879105 143.94971848 C96.32097855 144.38477707 96.32097855 144.38477707 97.74129105 144.82862473 C105.7864383 146.23849735 112.57287736 143.26201091 119.92879105 140.32471848 C120.89429886 139.94766769 121.85980667 139.57061691 122.8545723 139.18214035 C125.21597973 138.25861962 127.57376515 137.32686615 129.92879105 136.38721848 C128.66291746 133.80134845 127.39133256 131.21856347 126.11629105 128.63721848 C125.75986526 127.9076091 125.40343948 127.17799973 125.03621292 126.42628098 C123.25348587 122.82811629 121.51790766 119.49089138 118.92879105 116.38721848 C118.35129105 116.90284348 117.77379105 117.41846848 117.17879105 117.94971848 C114.92879105 119.38721848 114.92879105 119.38721848 112.67879105 119.07471848 C112.10129105 118.84784348 111.52379105 118.62096848 110.92879105 118.38721848 C111.24129105 116.51221848 111.24129105 116.51221848 111.92879105 114.38721848 C112.91879105 113.72721848 113.90879105 113.06721848 114.92879105 112.38721848 C114.34125375 109.31214767 113.47405115 107.5082071 111.4248848 105.15284348 C110.68528519 104.29239426 110.68528519 104.29239426 109.93074417 103.41456223 C109.41447464 102.82803879 108.89820511 102.24151535 108.36629105 101.63721848 C107.84615433 101.03522629 107.32601761 100.4332341 106.79011917 99.81299973 C105.50922831 98.33233689 104.21982793 96.85904306 102.92879105 95.38721848 C99.56183 96.84386372 97.40073639 98.69266443 94.8467598 101.30909348 C94.07912308 102.08768723 93.31148636 102.86628098 92.52058792 103.66846848 C91.72716995 104.48315598 90.93375198 105.29784348 90.11629105 106.13721848 C85.35135061 111.00822107 80.61060446 115.76543269 75.37874222 120.13526535 C73.56167364 121.70420417 72.01907662 123.41300269 70.49129105 125.26221848 C68.12382587 128.05150373 65.68196934 130.6548092 63.05379105 133.19971848 C59.15763693 137.03604681 55.78163794 141.18507911 52.3623848 145.44581223 C48.89820008 149.63286052 45.21361578 153.59076156 41.50691605 157.56299973 C38.88309464 160.43727681 36.398208 163.38039244 33.92879105 166.38721848 C30.55796547 164.94257894 28.34841813 163.14058722 25.92879105 160.38721848 C25.59879105 159.39721848 25.26879105 158.40721848 24.92879105 157.38721848 C25.48695511 157.13714035 26.04511917 156.88706223 26.6201973 156.62940598 C35.34278412 151.93603438 42.72576711 143.89813082 49.9326973 137.16456223 C52.26019838 134.99372684 54.63170457 132.89017873 57.05379105 130.82471848 C60.84687756 127.55178095 64.34516264 124.00215823 67.85847855 120.4360466 C70.49747051 117.77139777 73.18646803 115.24080938 76.05379105 112.82471848 C79.96052202 109.49203777 83.28538836 105.74822622 86.6748848 101.89893723 C89.94985678 98.24935839 93.41971466 94.81024122 96.92879105 91.38721848 C95.45036196 87.85321953 93.48816325 85.82976331 90.61629105 83.32471848 C89.85703323 82.65311691 89.09777542 81.98151535 88.3155098 81.28956223 C85.95484088 79.4079816 83.55073282 77.87685265 80.92879105 76.38721848 C78.94879105 78.86221848 78.94879105 78.86221848 76.92879105 81.38721848 C75.60879105 81.05721848 74.28879105 80.72721848 72.92879105 80.38721848 C73.80379105 75.63721848 73.80379105 75.63721848 74.92879105 73.38721848 C68.65879105 70.08721848 62.38879105 66.78721848 55.92879105 63.38721848 C53.17317232 67.52064656 51.26790821 71.9235024 49.24129105 76.44971848 C48.81267776 77.35399582 48.38406448 78.25827316 47.94246292 79.18995285 C44.44945094 87.05907323 44.59616627 92.84061629 46.99129105 101.01221848 C47.30066605 101.79596848 47.61004105 102.57971848 47.92879105 103.38721848 C45.28879105 102.39721848 42.64879105 101.40721848 39.92879105 100.38721848 C39.59862991 101.22857346 39.26846878 102.06992844 38.92830276 102.93677902 C35.92879711 110.51359721 32.82919516 118.03947875 29.62410355 125.53174973 C29.06611069 126.83654785 29.06611069 126.83654785 28.49684525 128.16770554 C26.95470986 131.76978356 25.41020702 135.37083223 23.8623848 138.97047043 C22.71733469 141.63540449 21.57667561 144.30218306 20.43660355 146.96924973 C20.08357162 147.78682251 19.7305397 148.60439529 19.36680984 149.44674301 C17.57943912 153.27905353 17.57943912 153.27905353 16.92879105 157.38721848 C13.95879105 156.39721848 13.95879105 156.39721848 10.92879105 155.38721848 C10.92879105 154.72721848 10.92879105 154.06721848 10.92879105 153.38721848 C0.63718056 150.44675834 -10.23440076 150.46881438 -20.07120895 155.38721848 C-20.43601364 154.21546066 -20.80081833 153.04370285 -21.1766777 151.83643723 C-23.52263717 144.80405609 -26.49307685 138.02043072 -29.38370895 131.19971848 C-29.94585504 129.86585928 -30.50770561 128.53187551 -31.06925583 127.19776535 C-32.45408239 123.91079571 -33.84618256 120.62697001 -35.24119186 117.34431076 C-36.08306405 115.35926541 -36.91988323 113.37214006 -37.75626755 111.38477707 C-38.29208385 110.11859871 -38.8280477 108.85248278 -39.3641777 107.58643723 C-39.83750534 106.46455002 -40.31083298 105.34266281 -40.79850388 104.18677902 C-42.03559304 101.26663331 -42.03559304 101.26663331 -44.07120895 98.38721848 C-45.72120895 99.04721848 -47.37120895 99.70721848 -49.07120895 100.38721848 C-48.78890427 99.18065598 -48.78890427 99.18065598 -48.50089645 97.94971848 C-46.38557556 84.36399555 -52.33443628 73.45918795 -58.07120895 61.38721848 C-64.11672643 61.38721848 -72.81931398 68.28382599 -78.07120895 71.38721848 Z " fill="#0B0B0B" transform="translate(256.0712089538574,50.6127815246582)"/>
<path d="M0 0 C6.48571021 4.69894926 11.65294267 11.33533833 13.1875 19.3125 C14.21064195 30.59232421 13.23141628 39.63254176 6 48.5625 C-1.36847778 56.34033766 -9.04552092 60.20994621 -19.6875 60.625 C-30.68362398 60.33829125 -38.56500663 55.94113684 -46.0625 48.125 C-51.67473283 41.13270992 -53.48176705 32.98167622 -53.12890625 24.16015625 C-52.16183792 15.45654132 -48.39205022 7.4099923 -41.80859375 1.51953125 C-29.16285106 -7.64241113 -13.26892072 -8.19813789 0 0 Z M-31.5625 18.9375 C-33.49136555 22.60234454 -33.93412519 26.19155228 -33.8125 30.3125 C-32.3520386 34.46328505 -30.79541768 37.32104116 -26.8125 39.3125 C-22.36578798 40.40720582 -18.89068257 40.65833214 -14.5 39.25 C-11.23084033 36.89316396 -9.61718579 34.92187158 -7.8125 31.3125 C-7.1618751 26.10750079 -7.902128 22.678058 -10.8125 18.3125 C-14.0599659 15.44264641 -16.58347319 14.06123607 -20.875 13.875 C-25.73385074 14.4148723 -28.04570734 15.67190681 -31.5625 18.9375 Z " fill="#0D0D0D" transform="translate(275.8125,215.6875)"/>
<path d="M0 0 C-0.75 2.4375 -0.75 2.4375 -2 5 C-4.92916561 6.32284898 -5.87822605 6.04059132 -9 5 C-10.56118428 4.93259135 -12.1250252 4.91485544 -13.6875 4.9375 C-14.49574219 4.94652344 -15.30398437 4.95554687 -16.13671875 4.96484375 C-16.75160156 4.97644531 -17.36648437 4.98804688 -18 5 C-18 6.32 -18 7.64 -18 9 C-17.03578125 9.30292969 -16.0715625 9.60585938 -15.078125 9.91796875 C-13.80179751 10.34028299 -12.52577131 10.76350854 -11.25 11.1875 C-9.99703125 11.59355469 -8.7440625 11.99960937 -7.453125 12.41796875 C-3.67648158 14.14821828 -2.08681682 15.43392062 0 19 C0.49668693 23.47717794 -0.47971265 27.74035695 -2.1875 31.875 C-5.09899211 35.28847351 -7.7364516 37.57778372 -12.26171875 38.421875 C-19.18252568 38.81300381 -24.13963547 36.491281 -30 33 C-29.50168276 29.31245243 -28.89932357 27.39509338 -26 25 C-25.5153125 25.28875 -25.030625 25.5775 -24.53125 25.875 C-19.37898353 28.72856297 -15.87035937 29.41931138 -10 29 C-9.67 27.35 -9.34 25.7 -9 24 C-9.85271484 23.63648438 -9.85271484 23.63648438 -10.72265625 23.265625 C-13.16273036 22.20649433 -15.58291952 21.11055049 -18 20 C-18.67675781 19.69964844 -19.35351562 19.39929688 -20.05078125 19.08984375 C-23.52196314 17.37283515 -25.01157186 15.98047248 -27 12.625 C-28.07242195 8.73747041 -28.24280935 6.81128201 -27 3 C-25.01267001 -0.36317383 -23.52881636 -1.74660883 -20 -3.4375 C-13.55024154 -4.93451552 -5.69396449 -3.20710172 0 0 Z " fill="#131313" transform="translate(269,455)"/>
<path d="M0 0 C2.31 0 4.62 0 7 0 C8.98 5.28 10.96 10.56 13 16 C14.65 10.72 16.3 5.44 18 0 C19.65 0 21.3 0 23 0 C25.72519588 5.05757073 27.22444478 10.55496399 29 16 C30.98 10.72 32.96 5.44 35 0 C37.31 0 39.62 0 42 0 C39.56775836 10.3080717 35.74664374 20.11605557 32 30 C29.625 30.125 29.625 30.125 27 30 C24.54268128 27.54268128 24.27111307 25.78504568 23.4375 22.4375 C22.78577597 18.92225001 22.78577597 18.92225001 21 16 C19.35 20.62 17.7 25.24 16 30 C13.69 30 11.38 30 9 30 C7.71248643 26.21165112 6.43090931 22.42135154 5.15478516 18.62915039 C4.71988772 17.33953841 4.28337578 16.05046971 3.84521484 14.76196289 C3.21547426 12.9091547 2.59202743 11.05421111 1.96875 9.19921875 C1.59169922 8.08377686 1.21464844 6.96833496 0.82617188 5.8190918 C0 3 0 3 0 0 Z " fill="#1B1B1B" transform="translate(17,228)"/>
<path d="M0 0 C6.43249472 -0.41099149 6.43249472 -0.41099149 8.94042969 1.40527344 C9.42930664 2.05012695 9.91818359 2.69498047 10.421875 3.359375 C10.97230469 4.06320313 11.52273437 4.76703125 12.08984375 5.4921875 C12.63769531 6.23726562 13.18554688 6.98234375 13.75 7.75 C14.31332031 8.47960938 14.87664062 9.20921875 15.45703125 9.9609375 C16.99342236 11.95860915 18.50098071 13.97421483 20 16 C20.99 17.32 21.98 18.64 23 20 C23.33 13.4 23.66 6.8 24 0 C26.31 0 28.62 0 31 0 C31.02465392 4.53897705 31.04283789 9.07791543 31.05493164 13.61694336 C31.0599714 15.16219766 31.0668032 16.70744716 31.07543945 18.25268555 C31.08752076 20.46925029 31.09323173 22.68575218 31.09765625 24.90234375 C31.10281754 25.5971434 31.10797882 26.29194305 31.11329651 27.00779724 C31.11349277 28.6722933 31.06189129 30.33665499 31 32 C30 33 30 33 26.7578125 33.41015625 C23 33 23 33 20.3046875 30.62109375 C19.47301116 29.5768779 18.66337865 28.51477962 17.875 27.4375 C16.66457031 25.88869141 16.66457031 25.88869141 15.4296875 24.30859375 C12.90436466 20.90737065 10.44937938 17.45615276 8 14 C7.93941406 15.28777344 7.87882813 16.57554688 7.81640625 17.90234375 C7.73201753 19.58074159 7.6473687 21.25912636 7.5625 22.9375 C7.52318359 23.78763672 7.48386719 24.63777344 7.44335938 25.51367188 C7.40146484 26.32255859 7.35957031 27.13144531 7.31640625 27.96484375 C7.26141968 29.08814087 7.26141968 29.08814087 7.20532227 30.23413086 C7 32 7 32 6 33 C3.5 33.125 3.5 33.125 1 33 C0 32 0 32 -0.11352539 28.94897461 C-0.11336634 27.60008729 -0.10767612 26.25119386 -0.09765625 24.90234375 C-0.0962413 24.19348526 -0.09482635 23.48462677 -0.09336853 22.75428772 C-0.08775443 20.48198288 -0.07519963 18.20977525 -0.0625 15.9375 C-0.05748681 14.40039204 -0.05292359 12.86328255 -0.04882812 11.32617188 C-0.03778042 7.55074358 -0.02050641 3.77538829 0 0 Z " fill="#161616" transform="translate(240,9)"/>
<path d="M0 0 C8.25 0 16.5 0 25 0 C25 2.31 25 4.62 25 7 C18.73 7 12.46 7 6 7 C6 9.31 6 11.62 6 14 C11.61 14 17.22 14 23 14 C23 16.64 23 19.28 23 22 C17.39 22 11.78 22 6 22 C6 24.31 6 26.62 6 29 C12.27 29 18.54 29 25 29 C25 31.31 25 33.62 25 36 C16.75 36 8.5 36 0 36 C-0.83638838 31.81805812 -1.12876784 28.45542193 -1.1328125 24.23828125 C-1.13410156 22.95501953 -1.13539063 21.67175781 -1.13671875 20.34960938 C-1.13462402 19.68727295 -1.1325293 19.02493652 -1.13037109 18.3425293 C-1.12498904 16.30835611 -1.13034589 14.27440101 -1.13671875 12.24023438 C-1.13542969 10.96083984 -1.13414062 9.68144531 -1.1328125 8.36328125 C-1.13168457 7.19063721 -1.13055664 6.01799316 -1.12939453 4.80981445 C-1 2 -1 2 0 0 Z " fill="#1E1E1E" transform="translate(458,225)"/>
<path d="M0 0 C0.66 0.33 1.32 0.66 2 1 C-1.49359465 4.59634744 -5.11098131 7.83451967 -9 11 C-7.44095325 7.17324889 -4.96833913 4.81992217 -2 2 C-1.34 1.34 -0.68 0.68 0 0 Z " fill="#515151" transform="translate(237,215)"/>
</svg>
